# xmcd
#
# Track frame offsets:
#	150
#	12870
#	25715
#	37767
#	50011
#	61369
#	74251
#	87451
#	100835
#	113847
#	124223
#	136896
#	149167
#	163456
#	174888
#	178915
#
# Disc length: 2576 seconds
#
# Revision: 1
# Processed by: cddbd v1.5.2PL0 Copyright (c) Steve Scherf et al.
# Submitted via: audiograbber 1.83.01
#
DISCID=e30a0e10
DTITLE=Bill Monroe - 16 Gems
DYEAR=1996
DGENRE=Bluegrass
TTITLE0=Kentucky Waltz
TTITLE1=True Life Blues
TTITLE2=Nobody Loves Me
TTITLE3=Good-Bye Old Pal
TTITLE4=Blue Grass Special
TTITLE5=Heavy Traffic Ahead
TTITLE6=Summertime Is Past And Gone
TTITLE7=I'm Going Back To Old Kentucky
TTITLE8=It's Mighty Dark To Travel
TTITLE9=Blue Grass Breakdown
TTITLE10=Sweetheart You Done Me Wrong
TTITLE11=Old Cross Road Is Watin'
TTITLE12=Remember The Cross
TTITLE13=Shine Hallelujah Shine
TTITLE14=Can't You Hear Me Calling
TTITLE15=Travelin' This Lonesome Road
EXTD=
EXTT0=
EXTT1=
EXTT2=
EXTT3=
EXTT4=
EXTT5=
EXTT6=
EXTT7=
EXTT8=
EXTT9=
EXTT10=
EXTT11=
EXTT12=
EXTT13=
EXTT14=
EXTT15=
PLAYORDER=
